# xmcd CD database file
#
# Track frame offsets:
#	150
#	21608
#	41412
#	58894
#	77568
#	88050
#	104760
#	124547
#	140009
#	156472
#	176139
#	180816
#
# Disc length: 2616 seconds
#
# Revision: 0
# Processed by: cddbd v1.4PL0 Copyright (c) Steve Scherf et al.
# Submitted via: CDex 1.50beta8
#
DISCID=a60a360c
DTITLE=Maurice Woolfolk - City of Paradise
DYEAR=1999
DGENRE=Jazz
TTITLE0=I Want Jesus to Walk with Me
TTITLE1=City of Paradise
TTITLE2=Tree of Life
TTITLE3=Radical Change
TTITLE4=Oh' Last Days
TTITLE5=Around the Mountains of Loneliness
TTITLE6=Surely Goodness
TTITLE7=Home Before Late
TTITLE8=Glory to His Name
TTITLE9=Night Sky
TTITLE10=I Love You, Lord
TTITLE11=Pursuit of Truth
EXTD=YEAR: 1999
EXTT0=
EXTT1=
EXTT2=
EXTT3=
EXTT4=
EXTT5=
EXTT6=
EXTT7=
EXTT8=
EXTT9=
EXTT10=
EXTT11=
PLAYORDER=
